<svg id="SvgjsSvg1240" width="462" height="504.5" xmlns="http://www.w3.org/2000/svg" version="1.1" xmlns:xlink="http://www.w3.org/1999/xlink" xmlns:svgjs="http://svgjs.com/svgjs"><defs id="SvgjsDefs1241"><marker id="SvgjsMarker1250" markerWidth="16" markerHeight="12" refX="16" refY="6" viewBox="0 0 16 12" orient="auto" markerUnits="userSpaceOnUse" stroke-dasharray="0,0"><path id="SvgjsPath1251" d="M0,2 L14,6 L0,11 L0,2" fill="#323232" stroke="#323232" stroke-width="2"></path></marker><marker id="SvgjsMarker1264" markerWidth="16" markerHeight="12" refX="16" refY="6" viewBox="0 0 16 12" orient="auto" markerUnits="userSpaceOnUse" stroke-dasharray="0,0"><path id="SvgjsPath1265" d="M0,2 L14,6 L0,11 L0,2" fill="#323232" stroke="#323232" stroke-width="2"></path></marker><marker id="SvgjsMarker1278" markerWidth="16" markerHeight="12" refX="16" refY="6" viewBox="0 0 16 12" orient="auto" markerUnits="userSpaceOnUse" stroke-dasharray="0,0"><path id="SvgjsPath1279" d="M0,2 L14,6 L0,11 L0,2" fill="#323232" stroke="#323232" stroke-width="2"></path></marker><marker id="SvgjsMarker1292" markerWidth="16" markerHeight="12" refX="16" refY="6" viewBox="0 0 16 12" orient="auto" markerUnits="userSpaceOnUse" stroke-dasharray="0,0"><path id="SvgjsPath1293" d="M0,2 L14,6 L0,11 L0,2" fill="#323232" stroke="#323232" stroke-width="2"></path></marker><marker id="SvgjsMarker1312" markerWidth="16" markerHeight="12" refX="16" refY="6" viewBox="0 0 16 12" orient="auto" markerUnits="userSpaceOnUse" stroke-dasharray="0,0"><path id="SvgjsPath1313" d="M0,2 L14,6 L0,11 L0,2" fill="#323232" stroke="#323232" stroke-width="2"></path></marker><marker id="SvgjsMarker1326" markerWidth="16" markerHeight="12" refX="16" refY="6" viewBox="0 0 16 12" orient="auto" markerUnits="userSpaceOnUse" stroke-dasharray="0,0"><path id="SvgjsPath1327" d="M0,2 L14,6 L0,11 L0,2" fill="#323232" stroke="#323232" stroke-width="2"></path></marker><marker id="SvgjsMarker1334" markerWidth="16" markerHeight="12" refX="16" refY="6" viewBox="0 0 16 12" orient="auto" markerUnits="userSpaceOnUse" stroke-dasharray="0,0"><path id="SvgjsPath1335" d="M0,2 L14,6 L0,11 L0,2" fill="#323232" stroke="#323232" stroke-width="2"></path></marker><marker id="SvgjsMarker1344" markerWidth="16" markerHeight="12" refX="16" refY="6" viewBox="0 0 16 12" orient="auto" markerUnits="userSpaceOnUse" stroke-dasharray="0,0"><path id="SvgjsPath1345" d="M0,2 L14,6 L0,11 L0,2" fill="#323232" stroke="#323232" stroke-width="2"></path></marker><marker id="SvgjsMarker1358" markerWidth="16" markerHeight="12" refX="16" refY="6" viewBox="0 0 16 12" orient="auto" markerUnits="userSpaceOnUse" stroke-dasharray="0,0"><path id="SvgjsPath1359" d="M0,2 L14,6 L0,11 L0,2" fill="#323232" stroke="#323232" stroke-width="2"></path></marker><marker id="SvgjsMarker1362" markerWidth="16" markerHeight="12" refX="16" refY="6" viewBox="0 0 16 12" orient="auto" markerUnits="userSpaceOnUse" stroke-dasharray="0,0"><path id="SvgjsPath1363" d="M0,2 L14,6 L0,11 L0,2" fill="#323232" stroke="#323232" stroke-width="2"></path></marker></defs><g id="SvgjsG1242" transform="translate(25,226)"><path id="SvgjsPath1243" d="M 0 0L 100 0L 100 42L 0 42Z" stroke="rgba(50,50,50,1)" stroke-width="2" fill-opacity="1" fill="#ffffff"></path><g id="SvgjsG1244"><text id="SvgjsText1245" font-family="微软雅黑" text-anchor="middle" font-size="13px" width="80px" fill="#323232" font-weight="400" align="middle" anchor="middle" family="微软雅黑" size="13px" weight="400" font-style="" opacity="1" y="11.05" transform="rotate(0)"><tspan id="SvgjsTspan1246" dy="16" x="50"><tspan id="SvgjsTspan1247" style="text-decoration:;">scheduler</tspan></tspan></text></g></g><g id="SvgjsG1248"><path id="SvgjsPath1249" d="M75 226L75 166L230 166" stroke="#323232" stroke-width="2" fill="none" marker-end="url(#SvgjsMarker1250)"></path><rect id="SvgjsRect1252" width="46" height="16" x="99.5" y="158" fill="#ffffff"></rect><text id="SvgjsText1253" font-family="微软雅黑" text-anchor="middle" font-size="13px" width="46px" fill="#323232" font-weight="400" align="top" anchor="middle" family="微软雅黑" size="13px" weight="400" font-style="" opacity="1" y="156.05" transform="rotate(0)"><tspan id="SvgjsTspan1254" dy="16" x="122.5"><tspan id="SvgjsTspan1255" style="text-decoration:;">register</tspan></tspan></text></g><g id="SvgjsG1256" transform="translate(230,146)"><path id="SvgjsPath1257" d="M 0 0L 100 0L 100 40L 0 40Z" stroke="rgba(50,50,50,1)" stroke-width="2" fill-opacity="1" fill="#ffffff"></path><g id="SvgjsG1258"><text id="SvgjsText1259" font-family="微软雅黑" text-anchor="middle" font-size="13px" width="80px" fill="#323232" font-weight="400" align="middle" anchor="middle" family="微软雅黑" size="13px" weight="400" font-style="" opacity="1" y="10.05" transform="rotate(0)"><tspan id="SvgjsTspan1260" dy="16" x="50"><tspan id="SvgjsTspan1261" style="text-decoration:;">registry</tspan></tspan></text></g></g><g id="SvgjsG1262"><path id="SvgjsPath1263" d="M75 268L75 298.5L75 298.5L75 329" stroke="#323232" stroke-width="2" fill="none" marker-end="url(#SvgjsMarker1264)"></path><rect id="SvgjsRect1266" width="40" height="16" x="55" y="290.5" fill="#ffffff"></rect><text id="SvgjsText1267" font-family="微软雅黑" text-anchor="middle" font-size="13px" width="40px" fill="#323232" font-weight="400" align="top" anchor="middle" family="微软雅黑" size="13px" weight="400" font-style="" opacity="1" y="288.55" transform="rotate(0)"><tspan id="SvgjsTspan1268" dy="16" x="75"><tspan id="SvgjsTspan1269" style="text-decoration:;">trigger</tspan></tspan></text></g><g id="SvgjsG1270" transform="translate(25,329)"><path id="SvgjsPath1271" d="M 0 0L 100 0L 100 41L 0 41Z" stroke="rgba(50,50,50,1)" stroke-width="2" fill-opacity="1" fill="#ffffff"></path><g id="SvgjsG1272"><text id="SvgjsText1273" font-family="微软雅黑" text-anchor="middle" font-size="13px" width="80px" fill="#323232" font-weight="400" align="middle" anchor="middle" family="微软雅黑" size="13px" weight="400" font-style="" opacity="1" y="10.55" transform="rotate(0)"><tspan id="SvgjsTspan1274" dy="16" x="50"><tspan id="SvgjsTspan1275" style="text-decoration:;">controller</tspan></tspan></text></g></g><g id="SvgjsG1276"><path id="SvgjsPath1277" d="M75 370L75 405L75 405L75 440" stroke="#323232" stroke-width="2" fill="none" marker-end="url(#SvgjsMarker1278)"></path><rect id="SvgjsRect1280" width="47" height="16" x="51.5" y="397" fill="#ffffff"></rect><text id="SvgjsText1281" font-family="微软雅黑" text-anchor="middle" font-size="13px" width="47px" fill="#323232" font-weight="400" align="top" anchor="middle" family="微软雅黑" size="13px" weight="400" font-style="" opacity="1" y="395.05" transform="rotate(0)"><tspan id="SvgjsTspan1282" dy="16" x="75"><tspan id="SvgjsTspan1283" style="text-decoration:;">execute</tspan></tspan></text></g><g id="SvgjsG1284" transform="translate(27.5,440)"><path id="SvgjsPath1285" d="M 0 0L 95 0L 95 38L 0 38Z" stroke="rgba(50,50,50,1)" stroke-width="2" fill-opacity="1" fill="#ffffff"></path><g id="SvgjsG1286"><text id="SvgjsText1287" font-family="微软雅黑" text-anchor="middle" font-size="13px" width="75px" fill="#323232" font-weight="400" align="middle" anchor="middle" family="微软雅黑" size="13px" weight="400" font-style="" opacity="1" y="9.05" transform="rotate(0)"><tspan id="SvgjsTspan1288" dy="16" x="47.5"><tspan id="SvgjsTspan1289" style="text-decoration:;">executor</tspan></tspan></text></g></g><g id="SvgjsG1290"><path id="SvgjsPath1291" d="M122.5 459L176.25 459L176.25 459L230 459" stroke="#323232" stroke-width="2" fill="none" marker-end="url(#SvgjsMarker1292)"></path><rect id="SvgjsRect1294" width="47" height="16" x="152.75" y="451" fill="#ffffff"></rect><text id="SvgjsText1295" font-family="微软雅黑" text-anchor="middle" font-size="13px" width="47px" fill="#323232" font-weight="400" align="top" anchor="middle" family="微软雅黑" size="13px" weight="400" font-style="" opacity="1" y="449.05" transform="rotate(0)"><tspan id="SvgjsTspan1296" dy="16" x="176.25"><tspan id="SvgjsTspan1297" style="text-decoration:;">execute</tspan></tspan></text></g><g id="SvgjsG1298" transform="translate(230,438.5)"><path id="SvgjsPath1299" d="M 0 0L 100 0L 100 41L 0 41Z" stroke="rgba(50,50,50,1)" stroke-width="2" fill-opacity="1" fill="#ffffff"></path><g id="SvgjsG1300"><text id="SvgjsText1301" font-family="微软雅黑" text-anchor="middle" font-size="13px" width="80px" fill="#323232" font-weight="400" align="middle" anchor="middle" family="微软雅黑" size="13px" weight="400" font-style="" opacity="1" y="10.55" transform="rotate(0)"><tspan id="SvgjsTspan1302" dy="16" x="50"><tspan id="SvgjsTspan1303" style="text-decoration:;">job</tspan></tspan></text></g></g><g id="SvgjsG1304" transform="translate(110,25)"><path id="SvgjsPath1305" d="M 0 0L 107 0L 107 41L 0 41Z" stroke="rgba(50,50,50,1)" stroke-width="2" fill-opacity="1" fill="#ffffff"></path><g id="SvgjsG1306"><text id="SvgjsText1307" font-family="微软雅黑" text-anchor="middle" font-size="13px" width="87px" fill="#323232" font-weight="400" align="middle" anchor="middle" family="微软雅黑" size="13px" weight="400" font-style="" opacity="1" y="10.55" transform="rotate(0)"><tspan id="SvgjsTspan1308" dy="16" x="53.5"><tspan id="SvgjsTspan1309" style="text-decoration:;">jobDefinition</tspan></tspan></text></g></g><g id="SvgjsG1310"><path id="SvgjsPath1311" d="M163.5 66L163.5 106L280 106L280 146" stroke="#323232" stroke-width="2" fill="none" marker-end="url(#SvgjsMarker1312)"></path><rect id="SvgjsRect1314" width="46" height="16" x="198.75" y="98" fill="#ffffff"></rect><text id="SvgjsText1315" font-family="微软雅黑" text-anchor="middle" font-size="13px" width="46px" fill="#323232" font-weight="400" align="top" anchor="middle" family="微软雅黑" size="13px" weight="400" font-style="" opacity="1" y="96.05" transform="rotate(0)"><tspan id="SvgjsTspan1316" dy="16" x="221.75"><tspan id="SvgjsTspan1317" style="text-decoration:;">register</tspan></tspan></text></g><g id="SvgjsG1318" transform="translate(336,25)"><path id="SvgjsPath1319" d="M 0 0L 101 0L 101 41L 0 41Z" stroke="rgba(50,50,50,1)" stroke-width="2" fill-opacity="1" fill="#ffffff"></path><g id="SvgjsG1320"><text id="SvgjsText1321" font-family="微软雅黑" text-anchor="middle" font-size="13px" width="81px" fill="#323232" font-weight="400" align="middle" anchor="middle" family="微软雅黑" size="13px" weight="400" font-style="" opacity="1" y="10.55" transform="rotate(0)"><tspan id="SvgjsTspan1322" dy="16" x="50.5"><tspan id="SvgjsTspan1323" style="text-decoration:;">trigger</tspan></tspan></text></g></g><g id="SvgjsG1324"><path id="SvgjsPath1325" d="M386.5 66L386.5 106L280 106L280 146" stroke="#323232" stroke-width="2" fill="none" marker-end="url(#SvgjsMarker1326)"></path><rect id="SvgjsRect1328" width="40" height="16" x="313.25" y="98" fill="#ffffff"></rect><text id="SvgjsText1329" font-family="微软雅黑" text-anchor="middle" font-size="13px" width="40px" fill="#323232" font-weight="400" align="top" anchor="middle" family="微软雅黑" size="13px" weight="400" font-style="" opacity="1" y="96.05" transform="rotate(0)"><tspan id="SvgjsTspan1330" dy="16" x="333.25"><tspan id="SvgjsTspan1331" style="text-decoration:;">trigger</tspan></tspan></text></g><g id="SvgjsG1332"><path id="SvgjsPath1333" d="M280 186L280 206.5L280 206.5L280 227" stroke="#323232" stroke-width="2" fill="none" marker-end="url(#SvgjsMarker1334)"></path></g><g id="SvgjsG1336" transform="translate(230,227)"><path id="SvgjsPath1337" d="M 0 0L 100 0L 100 40L 0 40Z" stroke="rgba(50,50,50,1)" stroke-width="2" fill-opacity="1" fill="#ffffff"></path><g id="SvgjsG1338"><text id="SvgjsText1339" font-family="微软雅黑" text-anchor="middle" font-size="13px" width="80px" fill="#323232" font-weight="400" align="middle" anchor="middle" family="微软雅黑" size="13px" weight="400" font-style="" opacity="1" y="10.05" transform="rotate(0)"><tspan id="SvgjsTspan1340" dy="16" x="50"><tspan id="SvgjsTspan1341" style="text-decoration:;">sharding</tspan></tspan></text></g></g><g id="SvgjsG1342"><path id="SvgjsPath1343" d="M230 247L177.5 247L177.5 247L125 247" stroke="#323232" stroke-width="2" fill="none" marker-end="url(#SvgjsMarker1344)"></path><rect id="SvgjsRect1346" width="36" height="16" x="159.5" y="239" fill="#ffffff"></rect><text id="SvgjsText1347" font-family="微软雅黑" text-anchor="middle" font-size="13px" width="36px" fill="#323232" font-weight="400" align="top" anchor="middle" family="微软雅黑" size="13px" weight="400" font-style="" opacity="1" y="237.05" transform="rotate(0)"><tspan id="SvgjsTspan1348" dy="16" x="177.5"><tspan id="SvgjsTspan1349" style="text-decoration:;">watch</tspan></tspan></text></g><g id="SvgjsG1350" transform="translate(230,330.25)"><path id="SvgjsPath1351" d="M 0 0L 100 0L 100 38.5L 0 38.5Z" stroke="rgba(50,50,50,1)" stroke-width="2" fill-opacity="1" fill="#ffffff"></path><g id="SvgjsG1352"><text id="SvgjsText1353" font-family="微软雅黑" text-anchor="middle" font-size="13px" width="80px" fill="#323232" font-weight="400" align="middle" anchor="middle" family="微软雅黑" size="13px" weight="400" font-style="" opacity="1" y="9.3" transform="rotate(0)"><tspan id="SvgjsTspan1354" dy="16" x="50"><tspan id="SvgjsTspan1355" style="text-decoration:;">listener</tspan></tspan></text></g></g><g id="SvgjsG1356"><path id="SvgjsPath1357" d="M230 349.5L177.5 349.5L177.5 349.5L125 349.5" stroke="#323232" stroke-width="2" fill="none" marker-end="url(#SvgjsMarker1358)"></path></g><g id="SvgjsG1360"><path id="SvgjsPath1361" d="M125 349.5L177.5 349.5L177.5 349.5L230 349.5" stroke="#323232" stroke-width="2" fill="none" marker-end="url(#SvgjsMarker1362)"></path></g></svg>